Coordinates
version=1
nRows=43
nColumns=12
inDegrees=yes

Units are S.I. units (second, meters, Newtons, ...)
Angles are in degrees

endheader
time	SC_y	SC_z	SC_x	AC_y	AC_z	AC_x	GH_y	GH_z	GH_yy	EL_x	PS_y
       0.0              -47.17          23.52          83.74          50.53         -11.24          6.218         -3.871          17.59          -43.0          31.61          19.25
    0.0211              -47.17          23.52          83.73          50.53         -11.24           6.22         -3.863          17.59         -43.01          31.62          19.26
    0.0422              -47.17          23.53          83.71          50.53         -11.24          6.222         -3.853          17.58         -43.02          31.63          19.27
   0.06329              -47.17          23.53           83.7          50.53         -11.23          6.224         -3.844          17.57         -43.04          31.64          19.29
   0.08439              -47.17          23.53          83.69          50.52         -11.23          6.226         -3.833          17.57         -43.05          31.65           19.3
    0.1055              -47.17          23.53          83.68          50.52         -11.23          6.229         -3.822          17.56         -43.07          31.66          19.31
    0.1266              -47.17          23.53          83.66          50.52         -11.23          6.231          -3.81          17.55         -43.08          31.67          19.33
    0.1477              -47.17          23.54          83.65          50.51         -11.23          6.234         -3.797          17.55          -43.1          31.69          19.34
    0.1688              -47.17          23.54          83.63          50.51         -11.23          6.237         -3.784          17.54         -43.11           31.7          19.36
    0.1899              -47.17          23.54          83.61          50.51         -11.23          6.241         -3.769          17.53         -43.13          31.72          19.38
     0.211              -47.17          23.54          83.59           50.5         -11.23          6.244         -3.753          17.52         -43.15          31.74           19.4
    0.2321              -47.17          23.55          83.57           50.5         -11.22          6.248         -3.736          17.51         -43.17          31.75          19.42
    0.2532              -47.17          23.55          83.55          50.49         -11.22          6.252         -3.718           17.5          -43.2          31.77          19.44
    0.2743              -47.17          23.55          83.53          50.49         -11.22          6.256         -3.698          17.49         -43.22           31.8          19.46
    0.2954              -47.17          23.56           83.5          50.48         -11.22          6.261         -3.677          17.48         -43.25          31.82          19.49
    0.3165              -47.17          23.56          83.48          50.48         -11.22          6.266         -3.654          17.46         -43.28          31.84          19.52
    0.3376              -47.17          23.56          83.45          50.47         -11.21          6.272         -3.629          17.45         -43.31          31.87          19.55
    0.3587              -47.17          23.57          83.41          50.47         -11.21          6.278         -3.601          17.43         -43.35           31.9          19.58
    0.3798              -47.17          23.57          83.38          50.46         -11.21          6.285         -3.571          17.42         -43.39          31.93          19.62
    0.4009              -47.17          23.58          83.34          50.45          -11.2          6.292         -3.539           17.4         -43.43          31.97          19.65
     0.422              -47.17          23.59           83.3          50.44          -11.2            6.3         -3.503          17.38         -43.47          32.01           19.7
    0.4431              -47.17          23.59          83.25          50.43          -11.2          6.309         -3.463          17.35         -43.52          32.05          19.75
    0.4642              -47.17           23.6           83.2          50.42         -11.19          6.319         -3.419          17.33         -43.58           32.1           19.8
    0.4853              -47.17          23.61          83.14          50.41         -11.19           6.33         -3.371           17.3         -43.64          32.15          19.86
    0.5064              -47.17          23.62          83.07           50.4         -11.18          6.342         -3.317          17.27         -43.71          32.21          19.92
    0.5275              -47.17          23.63           83.0          50.38         -11.18          6.356         -3.257          17.23         -43.79          32.27           20.0
    0.5486              -47.17          23.64          82.92          50.36         -11.17          6.371          -3.19           17.2         -43.88          32.35          20.08
    0.5696              -47.17          23.65          82.83          50.35         -11.16          6.388         -3.114          17.15         -43.97          32.43          20.17
    0.5907              -47.17          23.67          82.73          50.32         -11.16          6.407         -3.029           17.1         -44.08          32.52          20.27
    0.6118              -47.17          23.68          82.61           50.3         -11.15          6.429         -2.931          17.05         -44.21          32.63          20.39
    0.6329              -47.17           23.7          82.48          50.27         -11.14          6.454         -2.821          16.98         -44.35          32.75          20.52
     0.654              -47.17          23.72          82.33          50.24         -11.12          6.482         -2.693          16.91         -44.51          32.88          20.68
    0.6751              -47.16          23.75          82.15          50.21         -11.11          6.515         -2.547          16.82          -44.7          33.04          20.85
    0.6962              -47.16          23.78          81.95          50.16         -11.09          6.553         -2.376          16.73         -44.92          33.23          21.06
    0.7173              -47.16          23.81          81.71          50.11         -11.07          6.598         -2.176          16.61         -45.17          33.44           21.3
    0.7384              -47.16          23.85          81.43          50.06         -11.05          6.651         -1.941          16.47         -45.48           33.7          21.59
    0.7595              -47.16           23.9           81.1          49.99         -11.02          6.714         -1.661          16.31         -45.84           34.0          21.93
    0.7806              -47.16          23.96          80.69          49.91         -10.99          6.789         -1.326          16.12         -46.26          34.36          22.33
    0.8017              -47.16          24.03          80.21          49.81         -10.95           6.88          -0.92          15.88         -46.79           34.8          22.82
    0.8228              -47.16          24.11          79.62          49.68          -10.9          6.992        -0.4244           15.6         -47.42          35.34          23.42
    0.8439              -47.16          24.22          78.89          49.53         -10.84          7.129         0.1872          15.24          -48.2           36.0          24.16
     0.865              -47.15          24.35          77.98          49.35         -10.77            7.3         0.9499           14.8         -49.18          36.82          25.08
    0.8861              -47.15          24.51          76.83          49.11         -10.68          7.516          1.911          14.25         -50.41          37.86          26.24
